<?xml version="1.0" encoding="utf-8"?>
<!-- Generator: Adobe Illustrator 19.2.1, SVG Export Plug-In . SVG Version: 6.00 Build 0)  -->
<svg version="1.1" id="Layer_1" xmlns="http://www.w3.org/2000/svg" xmlns:xlink="http://www.w3.org/1999/xlink" x="0px" y="0px"
	 viewBox="0 0 200 200" style="enable-background:new 0 0 200 200;" xml:space="preserve">
<style type="text/css">
	.st0{fill:#FFFFFF;}
</style>
<g>
	<path class="st0" d="M44.8,71.9h49V119h-49C44.8,119,44.8,71.9,44.8,71.9z M104,71.9V119h47.6V71.9H104z M104,178.8h47.6v-49.5H104
		V178.8z M44.8,178.8h49v-49.5h-49C44.8,129.3,44.8,178.8,44.8,178.8z M124.8,66.8h-22.9V44h0.1c1.1-10.5,9.9-18.7,20.7-18.7
		c11.5,0,20.8,9.3,20.8,20.8C143.5,56.9,135.3,65.7,124.8,66.8L124.8,66.8z M123.9,58.2c6.2-0.6,11-5.8,11-12.2
		c0-6.8-5.5-12.2-12.2-12.2c-6.3,0-11.6,4.8-12.2,11h-0.1v13.5L123.9,58.2C123.9,58.3,123.9,58.2,123.9,58.2z M95.8,40.9L95.8,40.9
		l0.1,25.9H70v-0.1c-11.9-1.2-21.2-11.2-21.2-23.4c0-13,10.5-23.5,23.5-23.5C84.6,19.8,94.6,29.1,95.8,40.9z M86.3,41.9L86.3,41.9
		c-0.8-7-6.7-12.5-13.9-12.5c-7.7,0-13.9,6.2-13.9,13.9c0,7.2,5.5,13.1,12.5,13.8v0.1h15.3V41.9z"/>
</g>
</svg>
